<svg width="117" height="20" viewBox="0 0 117 20" fill="none" xmlns="http://www.w3.org/2000/svg">
<path d="M23.2244 17.8183L23.2238 2.25037L27.4831 1.60739L29.9496 1.60754L29.9494 4.3268L26.0127 4.32655L26.0124 8.71165L29.9492 6.72758L29.949 9.76531L26.0123 11.7739L26.0123 18.3718L23.2244 17.8183Z" fill="white"/>
<path d="M31.3433 3.93492C31.3434 2.44056 32.1748 1.60768 33.593 1.60777L36.6983 1.60797C38.1165 1.60806 38.9722 2.44104 38.9721 3.93541L38.9721 4.35187L36.1601 5.82156L36.1602 4.30269L34.1307 4.30256L34.1305 8.58968L38.972 6.09121L38.9713 16.2823C38.9712 17.7767 38.1154 18.6095 36.6972 18.6094L33.5919 18.6092C32.1737 18.6092 31.3424 17.7762 31.3425 16.2818L31.3426 14.6895L34.1302 13.2443L34.13 15.9145L36.1595 15.9146L36.1598 10.5741L31.3427 13.0971L31.3433 3.93492Z" fill="white"/>
<path d="M48.5707 1.60873L48.5698 15.8909L50.5993 15.8911L50.6002 1.60885L53.4121 1.60903L53.4111 16.2342C53.411 17.8511 52.6285 18.6104 50.9659 18.6103L48.7897 18.6102C47.7872 18.6101 47.2004 18.0222 47.2005 16.9688C47.2004 18.0222 46.5891 18.6101 45.5866 18.61L43.2393 18.6099C41.8211 18.6098 40.9898 17.7768 40.9899 16.2824L40.9908 1.60824L43.7783 1.60842L43.7774 15.8906L45.8313 15.8908L45.8322 1.60855L48.5707 1.60873Z" fill="white"/>
<path d="M65.2232 7.66074L65.2234 4.23105L62.9739 4.2309L62.9736 8.76299L65.2232 7.66074ZM67.9127 9.57174L67.9122 16.2596C67.9121 17.852 67.1052 18.6114 65.4181 18.6113L60.2833 18.6109L60.2844 1.60947L65.6392 1.60981C67.0574 1.6099 67.9131 2.44288 67.913 3.93724L67.9128 7.51392C67.9127 8.61632 67.5704 9.27774 66.7146 9.57166L67.9127 9.57174ZM65.2226 15.9655L65.223 10.5025L62.9734 11.6292L62.9731 15.9653L65.2226 15.9655Z" fill="white"/>
<path d="M77.5589 18.612L74.7714 18.6119L74.7719 11.4095L72.7179 12.4628L72.7175 18.6117L69.9301 18.6115L69.931 3.93737C69.9311 2.44301 70.7625 1.61013 72.1807 1.61022L75.286 1.61042C76.7042 1.61051 77.5599 2.44349 77.5598 3.93785L77.5589 18.612ZM74.7721 8.42077L74.7723 4.30514L72.7184 4.30501L72.7181 9.42505L74.7721 8.42077Z" fill="white"/>
<path d="M84.4666 8.47038L84.4669 4.30576L82.413 4.30563L82.4127 9.49916L84.4666 8.47038ZM87.254 10.0384L85.2 11.0917L88.3782 18.6127L85.4685 18.6125L82.8281 12.3164L82.4125 12.5369L82.4121 18.6123L79.6246 18.6122L79.6257 1.6107L84.9805 1.61104C86.3987 1.61113 87.2544 2.4441 87.2544 3.93847L87.254 10.0384Z" fill="white"/>
<path d="M94.1874 7.66257L94.1876 4.23288L91.9381 4.23274L91.9378 8.76483L94.1874 7.66257ZM96.8769 9.57357L96.8765 16.2615C96.8764 17.8538 96.0694 18.6132 94.3823 18.6131L89.2475 18.6128L89.2486 1.61131L94.6034 1.61165C96.0216 1.61174 96.8774 2.44472 96.8773 3.93908L96.877 7.51576C96.877 8.61816 96.5346 9.27958 95.6788 9.5735L96.8769 9.57357ZM94.1869 15.9673L94.1872 10.5043L91.9376 11.6311L91.9373 15.9672L94.1869 15.9673Z" fill="white"/>
<path d="M105.618 18.6138L98.8943 18.6134L98.8954 1.61192L105.619 1.61235L105.619 4.3316L101.683 4.33135L101.682 8.71646L105.619 6.73238L105.619 9.77011L101.682 11.7787L101.682 15.8943L105.619 15.8946L105.618 18.6138Z" fill="white"/>
<path d="M112.165 8.47214L112.166 4.30752L110.112 4.30739L110.111 9.50092L112.165 8.47214ZM114.953 10.0402L112.899 11.0935L116.077 18.6145L113.167 18.6143L110.527 12.3182L110.111 12.5386L110.111 18.6141L107.323 18.6139L107.324 1.61245L112.679 1.61279C114.097 1.61288 114.953 2.44586 114.953 3.94023L114.953 10.0402Z" fill="white"/>
<path d="M23.2244 17.8183L23.2238 2.25037L27.4831 1.60739L29.9496 1.60754L29.9494 4.3268L26.0127 4.32655L26.0124 8.71165L29.9492 6.72758L29.949 9.76531L26.0123 11.7739L26.0123 18.3718L23.2244 17.8183Z" fill="#8162FF"/>
<path d="M31.3433 3.93492C31.3434 2.44056 32.1748 1.60768 33.593 1.60777L36.6983 1.60797C38.1165 1.60806 38.9722 2.44104 38.9721 3.93541L38.9721 4.35187L36.1601 5.82156L36.1602 4.30269L34.1307 4.30256L34.1305 8.58968L38.972 6.09121L38.9713 16.2823C38.9712 17.7767 38.1154 18.6095 36.6972 18.6094L33.5919 18.6092C32.1737 18.6092 31.3424 17.7762 31.3425 16.2818L31.3426 14.6895L34.1302 13.2443L34.13 15.9145L36.1595 15.9146L36.1598 10.5741L31.3427 13.0971L31.3433 3.93492Z" fill="#8162FF"/>
<path d="M48.5707 1.60873L48.5698 15.8909L50.5993 15.8911L50.6002 1.60885L53.4121 1.60903L53.4111 16.2342C53.411 17.8511 52.6285 18.6104 50.9659 18.6103L48.7897 18.6102C47.7872 18.6101 47.2004 18.0222 47.2005 16.9688C47.2004 18.0222 46.5891 18.6101 45.5866 18.61L43.2393 18.6099C41.8211 18.6098 40.9898 17.7768 40.9899 16.2824L40.9908 1.60824L43.7783 1.60842L43.7774 15.8906L45.8313 15.8908L45.8322 1.60855L48.5707 1.60873Z" fill="#8162FF"/>
<path fill-rule="evenodd" clip-rule="evenodd" d="M2.35506 4.65439C2.35502 5.38948 2.6473 6.09449 3.16761 6.61431C3.68793 7.13413 4.39365 7.42619 5.12953 7.42624C5.86541 7.42629 6.57117 7.13432 7.09155 6.61456C7.61193 6.0948 7.9043 5.38984 7.90435 4.65474C7.9044 3.91965 7.61211 3.21464 7.0918 2.69482C6.57149 2.175 5.86576 1.88294 5.12988 1.88289C4.394 1.88285 3.68824 2.17482 3.16786 2.69457C2.64748 3.21433 2.35511 3.9193 2.35506 4.65439ZM5.12943 9.0356C4.19042 9.03543 3.27626 8.73422 2.52144 8.17627C1.76662 7.61832 1.21099 6.83309 0.936313 5.93612C0.661632 5.03915 0.682398 4.07779 0.995556 3.19349C1.30871 2.30919 1.89773 1.54864 2.67594 1.02374C3.45415 0.498828 4.38047 0.237283 5.31861 0.277579C6.25675 0.317875 7.15717 0.657885 7.8874 1.24758C8.61764 1.83728 9.13912 2.64553 9.37514 3.55342C9.61115 4.46131 9.54923 5.4209 9.19848 6.29101L10.9241 7.4427C10.9114 7.48302 10.8995 7.52355 10.8882 7.56429L10.6125 8.54777L9.98058 8.96974L8.20131 7.78228C7.41004 8.55651 6.32521 9.03567 5.12943 9.0356ZM2.35438 15.4103C2.35443 14.6752 2.6468 13.9702 3.16718 13.4505C3.68756 12.9307 4.39332 12.6387 5.1292 12.6388C5.86508 12.6388 6.5708 12.9309 7.09112 13.4507C7.61143 13.9705 7.90371 14.6755 7.90367 15.4106C7.90362 16.1457 7.61125 16.8507 7.09087 17.3704C6.57049 17.8902 5.86473 18.1822 5.12885 18.1821C4.39297 18.1821 3.68724 17.89 3.16693 17.3702C2.64662 16.8504 2.35433 16.1454 2.35438 15.4103ZM5.1293 11.0294C4.19112 11.0295 3.27768 11.33 2.52314 11.887C1.76861 12.4439 1.21275 13.2279 0.937205 14.1238C0.661666 15.0196 0.680969 15.9801 0.992282 16.8642C1.30359 17.7483 1.89051 18.5093 2.66681 19.0356C3.44312 19.5618 4.3679 19.8255 5.30533 19.788C6.24276 19.7504 7.14342 19.4135 7.87503 18.8268C8.60664 18.2402 9.13063 17.4346 9.37004 16.5284C9.60945 15.6223 9.55167 14.6633 9.20517 13.7924L27.5061 1.60452L25.8037 1.74473C23.403 1.99692 21.0781 2.73154 18.969 3.90441L13.4642 6.96184C13.2575 7.07718 13.0757 7.23235 12.9295 7.41835C12.7832 7.60435 12.6753 7.81749 12.6121 8.04542L12.1591 9.66548L8.21534 12.2992C7.39527 11.4849 6.28562 11.0283 5.1293 11.0294ZM13.4424 13.1132L13.4638 13.1257L18.9682 16.1838C21.0772 17.357 23.4019 18.0919 25.8026 18.3444L25.5568 17.136L23.2305 15.6765L16.4248 11.1195L13.4424 13.1132Z" fill="#8162FF"/>
</svg>
